<?xml version="1.0" standalone="no"?>
<!DOCTYPE svg PUBLIC "-//W3C//DTD SVG 20010904//EN"
 "http://www.w3.org/TR/2001/REC-SVG-20010904/DTD/svg10.dtd">
<svg version="1.0" xmlns="http://www.w3.org/2000/svg"
 width="260.000000pt" height="260.000000pt" viewBox="0 0 260.000000 260.000000"
 preserveAspectRatio="xMidYMid meet">
<metadata>
Created by potrace 1.11, written by Peter Selinger 2001-2013
</metadata>
<g transform="translate(0.000000,260.000000) scale(0.100000,-0.100000)"
fill="#000000" stroke="none">
<path d="M1160 2019 c-209 -53 -397 -111 -559 -170 -156 -57 -559 -227 -566
-238 -2 -5 102 -59 233 -121 130 -62 422 -202 648 -312 l411 -200 144 78 c158
86 512 259 887 434 133 63 239 117 235 121 -31 31 -551 251 -751 318 -175 59
-449 131 -495 130 -17 0 -102 -18 -187 -40z"/>
<path d="M2437 1503 c-11 -11 -8 -62 5 -82 9 -15 9 -83 0 -302 -7 -155 -11
-283 -10 -284 2 -1 25 0 52 3 l49 4 -7 87 c-15 199 -19 488 -7 495 17 11 14
73 -5 80 -21 8 -69 8 -77 -1z"/>
<path d="M580 977 l0 -303 193 -62 c501 -161 677 -160 1095 6 l142 56 0 302 0
303 -162 -78 c-90 -43 -245 -121 -345 -175 -100 -53 -186 -96 -191 -96 -5 0
-169 79 -363 175 -195 96 -357 175 -361 175 -5 0 -8 -136 -8 -303z"/>
</g>
</svg>
