<svg version="1" xmlns="http://www.w3.org/2000/svg" width="346.667" height="346.667" viewBox="0 0 260.000000 260.000000"><path d="M111.6 16C95 18.6 76.2 26.5 63.5 36.1 41.4 52.8 25.9 75.2 19.3 99.5c-2.5 9.4-2.7 11.4-2.7 31s.2 21.6 2.7 31c10.3 38.3 42.9 70.9 81.2 81.2 9.4 2.5 11.4 2.7 31 2.7s21.6-.2 31-2.7c38.3-10.3 70.9-42.9 81.2-81.2 2.5-9.4 2.7-11.4 2.7-31s-.2-21.6-2.7-31c-10.3-38.4-43.2-71.2-81.2-81.1-8.5-2.2-12.6-2.7-27.5-2.9-9.6-.2-20.2 0-23.4.5zm41.8 22.5c28.1 7.1 50 24.6 62.6 50 13.9 27.9 13.9 56.1 0 84-9.7 19.6-23.7 33.4-43.4 43-27.1 13.2-55.1 13.2-82.2 0-19.7-9.6-33.7-23.4-43.4-43-13.9-27.9-13.9-56.1 0-84 13.8-27.8 38.3-45.8 70.7-52 10.3-1.9 23.2-1.2 35.7 2z"/><path d="M122.5 86.2c-19.6 3.7-36.2 21.1-39.6 41.7-4.5 26.9 14.8 53 42.3 57.2 32.9 5.2 62.3-24.5 56.9-57.2-4.7-28.4-31.4-47.1-59.6-41.7z"/></svg>